# xmcd
#
# Track frame offsets: 
#        150
#        17266
#        18866
#        21789
#        38731
#        68570
#        85722
#        103846
#        123840
#        158636
#        168802
#        185125
#        199475
#        215726
#        230153
#        244386
#        263298
#        280225
#        313173
#        327187
#        341574
#
# Disc length: 4770 seconds
#
# Revision: 0
# Processed by: cddbd v1.4PL0 Copyright (c) Steve Scherf et al.
# Submitted via: ExactAudioCopy v0.90b4
#
DISCID=1e12a015
DTITLE=Van Morrison - GAMH 1984 dec 18 early show
DYEAR=1984
DGENRE=Celtic
TTITLE0=High Place
TTITLE1=Into The Mystic
TTITLE2=Inarticulate Speech Of The Heart # 2
TTITLE3=Dweller On The Threshold
TTITLE4=It's All In The Game > You Know What They're Writing About
TTITLE5=Northern Muse (Solid Ground)
TTITLE6=Cleaning Windows
TTITLE7=Vanlose Stairway
TTITLE8=Help Me > Night Shirt
TTITLE9=Full Force Gale
TTITLE10=Beautiful Vision
TTITLE11=Higher Than The World
TTITLE12=The Street Only Knew Your Name
TTITLE13=Cry For Home
TTITLE14=If You Only Knew
TTITLE15=What Would I Do
TTITLE16=The Master's Eyes
TTITLE17=Summertime In England
TTITLE18=What'd I Say
TTITLE19=Gloria
TTITLE20=Tupelo Honey
EXTD=
EXTT0=
EXTT1=
EXTT2=
EXTT3=
EXTT4=
EXTT5=
EXTT6=
EXTT7=
EXTT8=
EXTT9=
EXTT10=
EXTT11=
EXTT12=
EXTT13=
EXTT14=
EXTT15=
EXTT16=
EXTT17=
EXTT18=
EXTT19=
EXTT20=
PLAYORDER=
